<svg id="Layer_1" data-name="Layer 1" xmlns="http://www.w3.org/2000/svg" xmlns:xlink="http://www.w3.org/1999/xlink" viewBox="0 0 1080 295.66"><defs><style>.cls-1{fill:url(#linear-gradient);}.cls-2{fill:url(#linear-gradient-2);}.cls-3{fill:url(#linear-gradient-3);}.cls-4{fill:#1e1e1e;}.cls-5{fill:#757576;}</style><linearGradient id="linear-gradient" x1="63.71" y1="279.65" x2="109.67" y2="200.03" gradientUnits="userSpaceOnUse"><stop offset="0" stop-color="#e02127"/><stop offset="0.98" stop-color="#6e1011"/></linearGradient><linearGradient id="linear-gradient-2" x1="9.72" y1="134.64" x2="199.58" y2="134.64" gradientUnits="userSpaceOnUse"><stop offset="0.25" stop-color="#e02127"/><stop offset="0.98" stop-color="#6e1011"/></linearGradient><linearGradient id="linear-gradient-3" x1="119.38" y1="123.72" x2="92.4" y2="76.99" gradientUnits="userSpaceOnUse"><stop offset="0" stop-color="#e02127"/><stop offset="0.15" stop-color="#d82025"/><stop offset="0.38" stop-color="#c11c21"/><stop offset="0.68" stop-color="#9c171a"/><stop offset="0.98" stop-color="#6e1011"/></linearGradient></defs><path class="cls-1" d="M106.57,200.59l-.65.34h-1c-.75,0-1.38,0-2,0-.47,0-1,0-1.41.06-.82,0-1.53.1-2.2.16l-1.85.25c-1.13.17-2.23.38-3.26.63l-.79.18c-.41.1-.79.2-1.18.32l-2.14.66a39.71,39.71,0,0,0-4,1.58l-.66.32-1,.49-1.53.83c-.25.13-.41.22-.55.31l-.79.48c-1,.62-2,1.26-2.89,1.92l-.7.53-.6.47c-.27.21-.46.35-.65.52-.65.55-1.3,1.12-1.94,1.71-.47.41-.81.77-1.17,1.13l-.18.18a5,5,0,0,0-.4.4l-.14.15c-.32.31-.6.63-.88,1l-.24.26c-.45.51-.79.89-1.1,1.29l-1.12,1.43a43.89,43.89,0,0,0-3.5,5.56c-.49.93-1,1.94-1.48,3.09a43.43,43.43,0,0,0-1.74,4.84l-8.06,27.51V230.25c0,.18-.11.35-.16.53l-.13.51v27.44a27,27,0,0,0,27,27h.7a27,27,0,0,0,27-27l0-44.41c0-7.26,0-11.78-.06-14.66C108.22,200,107.39,200.3,106.57,200.59Z"/><path class="cls-2" d="M148.37,14.22a223.92,223.92,0,0,0-42.68-4.1h-.34a222.83,222.83,0,0,0-66.42,10.1A41.63,41.63,0,0,0,9.75,61.3c1.15,32.41,10.13,78,46.41,111l3.65,3.31,2.61-4.18c11.15-17.84,19.84-24.55,25.17-27l6.41-3-5.75-4.11c-25.27-18-29.29-47.8-29.43-64a13.21,13.21,0,0,1,9.1-12.6,115.86,115.86,0,0,1,37-6.06H105a115.36,115.36,0,0,1,37.34,6.14,13.08,13.08,0,0,1,8.86,12.54c-.12,13-2.84,37.42-19.92,55.68-3.44,4-18.87,16.06-18.87,16.06-1.14.79-2.31,1.55-3.5,2.28-2.1,1.27-4.25,2.68-6.38,4.16l-2.68,1.89-1.23.92c-.65.48-1.29,1-2,1.52l-1.89,1.5-.83.67-.3.25-.84.69L91.3,160.2v0l-.49.43c-.64.57-1.29,1.15-1.87,1.69s-1.33,1.21-2,1.84c-2,1.89-3.9,3.85-5.69,5.82-2,2.19-3.77,4.3-5.48,6.49L74,178.84l-.13.18L72.4,181.1a100.37,100.37,0,0,0-17.64,49v29.08l8.06-27.51a43.43,43.43,0,0,1,1.74-4.84c.5-1.15,1-2.16,1.48-3.09a43.89,43.89,0,0,1,3.5-5.56l1.12-1.43c.31-.4.65-.78,1.1-1.29l.24-.26c.28-.33.56-.65.88-1l.14-.15a5,5,0,0,1,.4-.4l.18-.18c.36-.36.7-.72,1.17-1.13.64-.59,1.29-1.16,1.94-1.71.19-.17.38-.31.65-.52l.6-.47.7-.53c.92-.66,1.87-1.3,2.89-1.92l.79-.48c.14-.09.3-.18.55-.31l1.53-.83,1-.49.66-.32a39.71,39.71,0,0,1,4-1.58l2.14-.66c.39-.12.77-.22,1.18-.32l.79-.18c1-.25,2.13-.46,3.26-.63l1.85-.25c.67-.06,1.38-.13,2.2-.16.45,0,.94-.05,1.41-.06.62,0,1.25,0,2,0h1l.65-.34c1.33-.47,2.65-1,4-1.5,2.14-.81,4.24-1.66,6.33-2.55l1.77-.76c.5-.22,1-.44,1.52-.68l.82-.36,3.53-1.65,1-.48,3.44-1.74,1.71-.89,3.06-1.68c32.48-19.41,53.63-49.72,62.84-90.08l1-5h-.06c.41-2,.79-4.07,1.13-6.12C204.34,53.41,181.75,20.73,148.37,14.22Z"/><path class="cls-3" d="M125.05,97.55H108.92l10.86-22.48a2.22,2.22,0,0,0-2-3.19H101.86a2.24,2.24,0,0,0-2.12,1.52L89.45,104.46a1.26,1.26,0,0,0,1.19,1.65h15.21l-9.14,29.1a.8.8,0,0,0,1.39.73l28-36.37A1.26,1.26,0,0,0,125.05,97.55Z"/><path class="cls-4" d="M345.66,128.47a29.69,29.69,0,0,1-12.64,12q-8.61,4.58-21.72,4.57H293.47v40.84H272.14V79.55H311.3q12.34,0,21,4.27a29.83,29.83,0,0,1,13,11.73,34.43,34.43,0,0,1,.3,32.92Zm-22.17-4.65q4.26-4,4.27-11.35,0-15.54-17.37-15.54H293.47v30.93h16.92Q319.22,127.86,323.49,123.82Z"/><path class="cls-4" d="M421.17,185.92,397.7,144.47H387.65v41.45H366.31V79.55h39.93q12.35,0,21,4.35a30.23,30.23,0,0,1,13,11.73,33,33,0,0,1-1.75,35.51q-6.09,8.45-18.13,11.65l25.45,43.13Zm-33.52-57.45h17.82c5.8,0,10.11-1.4,13-4.19s4.26-6.68,4.26-11.66-1.42-8.66-4.26-11.35-7.16-4-13-4H387.65Z"/><path class="cls-4" d="M486.85,79.55V185.92H465.51V79.55Z"/><path class="cls-4" d="M600.38,185.92H579l-48.3-73v73H509.4V79.4h21.34L579,152.55V79.4h21.34Z"/><path class="cls-4" d="M624.83,104.47a50.66,50.66,0,0,1,19.35-19.35,54.86,54.86,0,0,1,27.51-6.94q17.84,0,31.24,9.15a47.73,47.73,0,0,1,18.74,25.29H697.14a25.44,25.44,0,0,0-10.29-11.43,30.17,30.17,0,0,0-15.31-3.81A31.49,31.49,0,0,0,655,101.73,29.61,29.61,0,0,0,643.73,114a40.49,40.49,0,0,0-4,18.59,40.6,40.6,0,0,0,4,18.52A29.52,29.52,0,0,0,655,163.44a31.49,31.49,0,0,0,16.54,4.35,29.71,29.71,0,0,0,15.31-3.89,25.86,25.86,0,0,0,10.29-11.51h24.53q-5.32,16.32-18.66,25.38t-31.32,9.06a55,55,0,0,1-27.51-6.93,50.82,50.82,0,0,1-19.35-19.28,55.32,55.32,0,0,1-7.08-28A55.74,55.74,0,0,1,624.83,104.47Z"/><path class="cls-4" d="M762.82,79.55V185.92H741.48V79.55Z"/><path class="cls-4" d="M858.9,128.47a29.71,29.71,0,0,1-12.65,12q-8.61,4.58-21.72,4.57H806.7v40.84H785.37V79.55h39.16q12.35,0,21,4.27a29.77,29.77,0,0,1,13,11.73,34.4,34.4,0,0,1,.31,32.92Zm-22.18-4.65q4.28-4,4.27-11.35,0-15.54-17.37-15.54H806.7v30.93h16.92Q832.46,127.86,836.72,123.82Z"/><path class="cls-4" d="M944.77,165.65H902.4l-7,20.27H873L911.24,79.4h24.84l38.25,106.52H951.78ZM939,148.58l-15.39-44.49-15.39,44.49Z"/><path class="cls-4" d="M1011.51,169h35v16.92H990.17V79.55h21.34Z"/><path class="cls-5" d="M284.89,234.38h-4.81v15.13h-4v-32.1h10.69c5.68,0,9.44,3.08,9.44,8.49a7.83,7.83,0,0,1-6.69,8.2l9.58,15.41h-4.77Zm-4.81-13.11v9.26h6.74c3.35,0,5.18-1.42,5.18-4.63s-1.83-4.63-5.18-4.63Z"/><path class="cls-5" d="M336.15,217.41v32.1h-4v-32.1Z"/><path class="cls-5" d="M385.8,224.29c-1.55-2.8-3.16-3.39-5.08-3.39a3.9,3.9,0,0,0-3.86,4c0,3.16,2.8,4.49,6.19,6.19,3.63,1.83,7.66,4,7.66,9.21a9.4,9.4,0,0,1-9.63,9.59,10.49,10.49,0,0,1-10.36-8.67l3.48-2.11c1.06,3.81,2.76,6.93,6.88,6.93a5.8,5.8,0,0,0,4.36-1.84,6.1,6.1,0,0,0,1.24-3.8c0-3.12-2.94-4.77-6.06-6.24-4.17-2-7.79-4-7.79-8.94a8,8,0,0,1,7.89-8.16c4.53,0,6.78,2.11,8.34,5.13Z"/><path class="cls-5" d="M442.52,249.51l-13.07-16.19v16.19h-4v-32.1h4V230.3l12-12.89h5.13l-13,14.4,14.12,17.7Z"/><path class="cls-5" d="M548,240.16a12.37,12.37,0,0,1-12.56,9.72c-7.48,0-14.49-5.46-14.49-16.42s7-16.41,14.49-16.41A12.37,12.37,0,0,1,548,226.77l-3.9,1.14c-1.46-4.49-4.45-7-8.66-7-5.92,0-10.32,4.26-10.32,12.56S529.49,246,535.41,246c4.21,0,7.2-2.53,8.66-7Z"/><path class="cls-5" d="M610.69,233.46c0,10.69-6.74,16.42-14.4,16.42s-14.4-5.73-14.4-16.42,6.74-16.41,14.4-16.41S610.69,222.78,610.69,233.46Zm-24.62,0c0,8.39,4.54,12.57,10.22,12.57s10.23-4.18,10.23-12.57S602,220.9,596.29,220.9,586.07,225.07,586.07,233.46Z"/><path class="cls-5" d="M668.78,217.41v32.1h-4.72l-14.49-25v25h-4v-32.1h4.72l14.49,25.08V217.41Z"/><path class="cls-5" d="M718.8,224.29c-1.56-2.8-3.17-3.39-5.09-3.39a3.9,3.9,0,0,0-3.85,4c0,3.16,2.79,4.49,6.19,6.19,3.62,1.83,7.66,4,7.66,9.21a9.4,9.4,0,0,1-9.63,9.59,10.5,10.5,0,0,1-10.37-8.67l3.49-2.11c1,3.81,2.75,6.93,6.88,6.93a5.78,5.78,0,0,0,4.35-1.84,6.1,6.1,0,0,0,1.24-3.8c0-3.12-2.93-4.77-6-6.24-4.18-2-7.8-4-7.8-8.94a8,8,0,0,1,7.89-8.16,8.46,8.46,0,0,1,8.34,5.13Z"/><path class="cls-5" d="M758.18,217.41h4v21.46c0,4.08,2.52,7.16,7.2,7.16s7.19-3.08,7.19-7.16V217.41h4V238.6c0,7.33-5,11.28-11.23,11.28s-11.24-3.95-11.24-11.28Z"/><path class="cls-5" d="M820.63,217.41v28.25h14.58v3.85H816.59v-32.1Z"/><path class="cls-5" d="M861.48,217.41H884v3.86h-9.27v28.24h-4V221.27h-9.26Z"/><path class="cls-5" d="M922.18,217.41v32.1h-4v-32.1Z"/><path class="cls-5" d="M981.92,217.41v32.1H977.2l-14.49-25v25h-4v-32.1h4.73l14.49,25.08V217.41Z"/><path class="cls-5" d="M1033.64,233.32h10.77v16.19H1041l-.41-4.4a10.07,10.07,0,0,1-9,4.77c-7.29,0-14.31-5.28-14.31-16.42s7-16.41,14.49-16.41c6.74,0,11.19,3.89,12.61,9.72l-3.9,1.14c-1.46-4.49-4.45-7-8.71-7-5.91,0-10.32,4.26-10.32,12.56S1025.8,246,1031.71,246c5.55,0,8.48-3.72,8.85-8.85h-6.92Z"/></svg>